<?xml version="1.0" encoding="utf-8"?>
<!-- Generator: Adobe Illustrator 24.0.0, SVG Export Plug-In . SVG Version: 6.00 Build 0)  -->
<svg version="1.1" id="Layer_1" xmlns="http://www.w3.org/2000/svg" xmlns:xlink="http://www.w3.org/1999/xlink" x="0px" y="0px"
	 viewBox="0 0 12 12" style="enable-background:new 0 0 12 12;" xml:space="preserve">
<g>
	<path d="M11.65,3.53l-0.69,7.2c-0.03,0.36-0.18,0.66-0.45,0.91S9.93,12,9.56,12H9.55h-7.1H2.44c-0.37,0-0.68-0.12-0.95-0.37
		s-0.41-0.55-0.45-0.91l-0.69-7.2h3.53V2.12c0-0.59,0.21-1.09,0.62-1.5S5.41,0,6,0s1.09,0.21,1.5,0.62s0.62,0.91,0.62,1.5v1.41
		H11.65z M10.88,4.23H8.12v2.12H7.41V4.23H4.59v2.12H3.88V4.23H1.12l0.62,6.42c0.02,0.18,0.09,0.33,0.22,0.46s0.29,0.19,0.47,0.19
		h7.11h0.01c0.18,0,0.34-0.06,0.47-0.19s0.21-0.28,0.22-0.46L10.88,4.23z M4.59,3.53h2.81V2.12c0-0.39-0.14-0.72-0.41-1
		S6.39,0.7,6,0.7S5.28,0.84,5,1.12s-0.41,0.61-0.41,1v0.7V3.53z"/>
</g>
</svg>
