<?xml version="1.0" encoding="UTF-8"?>
<svg width="117px" height="20px" viewBox="0 0 117 20" version="1.1" xmlns="http://www.w3.org/2000/svg" xmlns:xlink="http://www.w3.org/1999/xlink">
    <title>Group 13</title>
    <defs>
        <polygon id="path-1" points="0.0187486966 0.274492174 26.1225589 0.274492174 26.1225589 14.8695652 0.0187486966 14.8695652"></polygon>
        <polygon id="path-3" points="0.133093688 0.0292784281 26.1203311 0.0292784281 26.1203311 15.4544824 0.133093688 15.4544824"></polygon>
    </defs>
    <g id="Design" stroke="none" stroke-width="1" fill="none" fill-rule="evenodd">
        <g id="CFW-front-page-desktop" transform="translate(-10.000000, -30.000000)">
            <g id="Group-13" transform="translate(10.000000, 30.000000)">
                <g id="Group-4" transform="translate(0.000000, 4.130435)">
                    <mask id="mask-2" fill="white">
                        <use xlink:href="#path-1"></use>
                    </mask>
                    <g id="Clip-2"></g>
                    <path d="M10.5858266,3.33108 C9.99774244,2.0826313 8.55003059,0.274492174 5.69991623,0.274492174 C2.48826451,0.274492174 0,2.68544348 0,5.97905217 C0,9.38031652 2.4654536,11.6836122 5.60929753,11.6836122 C7.57728571,11.6836122 9.81650504,10.6504748 10.6989437,8.32546957 L8.36910567,7.16296696 C8.02975426,8.02421217 7.37386236,9.27266087 5.65460688,9.27266087 C3.8678561,9.27266087 2.80480501,7.85202261 2.80480501,5.91451826 C2.80480501,3.76170261 4.04878102,2.57778783 5.60929753,2.57778783 C7.170439,2.57778783 7.96194647,3.6971687 8.16536983,4.40763652 L10.5858266,3.33108" id="Fill-1" fill="#222222" mask="url(#mask-2)"></path>
                    <path d="M26.1225589,6.08670783 C26.1225589,3.1157687 24.3129972,0.274492174 20.9882284,0.274492174 C19.223976,0.274492174 18.3190389,1.15685217 17.8893813,1.58777217 L17.8893813,0.59745913 L15.1976934,0.59745913 L15.1976934,14.8695652 L17.8893813,14.8695652 L17.8893813,10.4782852 C18.4546545,10.9734417 19.4273994,11.6836122 20.9882284,11.6836122 C24.0192676,11.6836122 26.1225589,9.29407304 26.1225589,6.08670783 M23.3630633,5.95764 C23.3630633,8.39000348 21.9381623,9.2512487 20.6263785,9.2512487 C19.1108589,9.2512487 17.8215735,8.13186783 17.8665704,5.91451826 C17.9121922,3.61122261 19.3370932,2.74997739 20.5810692,2.74997739 C21.3953876,2.74997739 23.3630633,3.26684348 23.3630633,5.95764" id="Fill-3" fill="#222222" mask="url(#mask-2)"></path>
                </g>
                <path d="M31.3284672,0 L31.3284672,15.6956522 L33.9908203,15.6956522 L33.9908203,10.5825257 C33.9908203,9.33741424 33.9908203,9.15958506 34.0793917,8.80392669 C34.256841,8.15895038 35.0555163,6.78085098 36.763811,6.78085098 C38.2278448,6.78085098 38.6051162,7.78117853 38.6936876,8.0035418 C38.826698,8.33677956 38.826698,8.58156343 38.8711369,9.58219811 L38.8711369,15.6956522 L41.4890511,15.6956522 L41.4890511,8.82604016 C41.4890511,7.55881527 41.4666784,6.42488549 40.5570589,5.44697854 C39.9582057,4.77988875 38.8935097,4.2464012 37.5177409,4.2464012 C35.987202,4.2464012 34.8339345,4.86864978 33.9908203,5.71356875 L33.9908203,0 L31.3284672,0" id="Fill-5" fill="#222222"></path>
                <path d="M52.4963504,6.48240004 L52.4963504,4.57319583 L50.0675991,4.57319583 L50.0675991,3.66291179 C50.0675991,3.32983617 50.156561,2.99706724 50.2458307,2.84157061 C50.5133319,2.4419412 50.9365934,2.28675126 51.6495196,2.28675126 C52.0284541,2.28675126 52.273484,2.30852692 52.4963504,2.35299835 L52.4963504,0.0889428469 C52.0062905,0.0444714234 51.5159229,0 50.9809204,0 C47.3713466,0 47.3713466,1.73162522 47.3938179,3.3077538 L47.3938179,4.57319583 L45.7226277,4.57319583 L45.7226277,6.48240004 L47.3938179,6.48240004 L47.3938179,15.6956522 L50.0675991,15.6956522 L50.0675991,6.48240004 L52.4963504,6.48240004" id="Fill-6" fill="#222222"></path>
                <polyline id="Fill-7" fill="#222222" points="67.1757579 12.3023801 65.1145478 4.95652174 62.7171801 4.95652174 60.6333738 12.3023801 58.6839068 4.95652174 55.8832117 4.95652174 59.132117 15.6956522 61.7761861 15.6956522 63.9271621 8.84442344 65.9434892 15.6956522 68.6101545 15.6956522 71.9708029 4.95652174 69.1697983 4.95652174 67.1757579 12.3023801"></polyline>
                <path d="M85.5182482,4.95652174 L76.2043796,4.95652174 L76.2043796,7.40419645 L82.6450233,7.40419645 C80.9345436,9.74846909 79.8363954,11.2835467 78.7593826,13.8762797 C77.8728861,16.0335423 77.6192612,17.6723174 77.3870694,19 L80.7249756,19 C81.1470884,14.5610969 82.7730265,10.5780491 85.5182482,7.21777729 L85.5182482,4.95652174" id="Fill-8" fill="#222222"></path>
                <g id="Group-12" transform="translate(89.751825, 0.000000)">
                    <mask id="mask-4" fill="white">
                        <use xlink:href="#path-3"></use>
                    </mask>
                    <g id="Clip-10"></g>
                    <path d="M3.94525513,13.2782199 C4.82873783,12.8194239 6.92087179,11.8167132 7.26981812,11.6039164 C8.9898456,10.5058244 10.5474432,9.41678763 10.5474432,7.63050167 C10.5474432,5.53301923 8.47846939,4.1729306 5.50285273,4.1729306 C3.8059854,4.1729306 2.31817707,4.66462709 1.45816333,5.3691204 C0.853528897,5.87711622 0.133093688,6.87650669 0.133093688,8.43339465 L3.06208124,8.61359281 C3.03861228,7.82699916 2.96882301,6.05761622 5.27032477,6.05761622 C6.73497295,6.05761622 7.33929858,6.86020736 7.33929858,7.71260201 C7.33929858,9.1710903 5.89781056,10.0470284 5.03779682,10.6697232 C4.10799382,11.3413161 2.13196943,12.4258253 0.133093688,13.3926171 L0.133093688,15.4544824 L10.8031313,15.4544824 L10.8031313,13.2782199 L3.94525513,13.2782199" id="Fill-9" fill="#222222" mask="url(#mask-4)"></path>
                    <path d="M15.8826164,0.0292784281 L15.8826164,15.4544824 L18.5651799,15.4544824 L18.5651799,10.429459 C18.5651799,9.20580184 18.5651799,9.03103679 18.6547325,8.68150669 C18.8335289,8.04764381 19.6382671,6.69329013 21.3595298,6.69329013 C22.8346772,6.69329013 23.2148125,7.67638127 23.3040563,7.89491304 C23.4380764,8.22240886 23.4380764,8.46297492 23.4828527,9.44636789 L23.4828527,15.4544824 L26.1206399,15.4544824 L26.1206399,8.70323913 C26.1206399,7.4578495 26.0980974,6.34345819 25.1815729,5.38240134 C24.5781736,4.72680602 23.5053953,4.20251087 22.1194916,4.20251087 C20.5770253,4.20251087 19.4146944,4.81403763 18.5651799,5.64439799 L18.5651799,0.0292784281 L15.8826164,0.0292784281" id="Fill-11" fill="#222222" mask="url(#mask-4)"></path>
                </g>
            </g>
        </g>
    </g>
</svg>